<?xml version="1.0" standalone="no"?>
<!DOCTYPE svg PUBLIC "-//W3C//DTD SVG 20010904//EN"
 "http://www.w3.org/TR/2001/REC-SVG-20010904/DTD/svg10.dtd">
<svg version="1.0" xmlns="http://www.w3.org/2000/svg"
 width="454.000000pt" height="454.000000pt" viewBox="0 0 454.000000 454.000000"
 preserveAspectRatio="xMidYMid meet">
<metadata>
Created by potrace 1.11, written by Peter Selinger 2001-2013
</metadata>
<g transform="translate(0.000000,454.000000) scale(0.100000,-0.100000)"
fill="#000000" stroke="none">
<path d="M0 2270 l0 -2270 2270 0 2270 0 0 2270 0 2270 -2270 0 -2270 0 0
-2270z m2245 1795 c484 0 920 4 968 8 l88 8 -3 -123 -3 -123 -347 -3 -348 -2
0 -1150 0 -1149 79 27 c166 59 301 164 395 306 130 196 170 370 195 846 11
208 27 296 75 405 34 75 96 155 145 188 77 51 121 57 416 57 167 0 284 -4 303
-11 42 -14 68 -68 53 -111 -14 -40 -36 -56 -91 -64 -155 -23 -213 -152 -230
-511 -12 -248 -28 -342 -85 -518 -57 -173 -130 -292 -259 -420 -157 -156 -337
-258 -572 -325 -76 -22 -290 -65 -371 -75 l-52 -7 -3 -270 c-2 -148 -1 -272 1
-274 2 -2 161 -4 353 -4 l348 0 0 -117 0 -118 -1040 0 -1040 0 0 118 0 117
350 0 350 0 0 274 0 275 -57 6 c-94 11 -281 54 -390 90 -308 102 -566 312
-693 566 -89 176 -150 448 -150 669 0 217 -43 391 -113 465 -41 42 -52 47
-129 60 -73 11 -103 95 -54 152 l24 28 288 3 c269 3 292 2 357 -18 57 -18 79
-31 122 -74 65 -65 119 -169 145 -279 22 -97 27 -148 40 -407 10 -210 38 -404
71 -503 49 -145 147 -294 258 -390 50 -43 197 -124 259 -142 l22 -6 0 1145 0
1146 -350 0 -350 0 0 126 0 125 73 -8 c39 -4 468 -8 952 -8z"/>
</g>
</svg>
